<mxfile host="app.diagrams.net" modified="2021-02-19T02:15:30.309Z" agent="5.0 (Windows NT 10.0; Win64; x64) AppleWebKit/537.36 (KHTML, like Gecko) Chrome/77.0.3865.90 Safari/537.36" etag="6mz_5bcY6et4lMmfkzjn" version="14.1.8" type="github">
  <diagram id="C5RBs43oDa-KdzZeNtuy" name="Page-1">
    <mxGraphModel dx="1422" dy="804" grid="1" gridSize="10" guides="1" tooltips="1" connect="1" arrows="1" fold="1" page="1" pageScale="1" pageWidth="827" pageHeight="1169" math="0" shadow="0">
      <root>
        <mxCell id="WIyWlLk6GJQsqaUBKTNV-0" />
        <mxCell id="WIyWlLk6GJQsqaUBKTNV-1" parent="WIyWlLk6GJQsqaUBKTNV-0" />
        <mxCell id="_eyQY1Q9BSyhIE6k3WkP-7" style="edgeStyle=orthogonalEdgeStyle;rounded=0;orthogonalLoop=1;jettySize=auto;html=1;exitX=0.5;exitY=1;exitDx=0;exitDy=0;shape=link;" edge="1" parent="WIyWlLk6GJQsqaUBKTNV-1" source="_eyQY1Q9BSyhIE6k3WkP-0">
          <mxGeometry relative="1" as="geometry">
            <mxPoint x="160" y="710" as="targetPoint" />
          </mxGeometry>
        </mxCell>
        <mxCell id="_eyQY1Q9BSyhIE6k3WkP-26" style="edgeStyle=orthogonalEdgeStyle;rounded=0;orthogonalLoop=1;jettySize=auto;html=1;exitX=1;exitY=0.5;exitDx=0;exitDy=0;entryX=1;entryY=0.5;entryDx=0;entryDy=0;" edge="1" parent="WIyWlLk6GJQsqaUBKTNV-1" source="_eyQY1Q9BSyhIE6k3WkP-0" target="_eyQY1Q9BSyhIE6k3WkP-0">
          <mxGeometry relative="1" as="geometry" />
        </mxCell>
        <mxCell id="_eyQY1Q9BSyhIE6k3WkP-27" style="edgeStyle=orthogonalEdgeStyle;rounded=0;orthogonalLoop=1;jettySize=auto;html=1;exitX=1;exitY=0.5;exitDx=0;exitDy=0;entryX=1;entryY=0.5;entryDx=0;entryDy=0;entryPerimeter=0;" edge="1" parent="WIyWlLk6GJQsqaUBKTNV-1" source="_eyQY1Q9BSyhIE6k3WkP-0" target="_eyQY1Q9BSyhIE6k3WkP-0">
          <mxGeometry relative="1" as="geometry" />
        </mxCell>
        <mxCell id="_eyQY1Q9BSyhIE6k3WkP-29" style="edgeStyle=orthogonalEdgeStyle;rounded=0;orthogonalLoop=1;jettySize=auto;html=1;exitX=1;exitY=0.5;exitDx=0;exitDy=0;entryX=0;entryY=0.5;entryDx=0;entryDy=0;" edge="1" parent="WIyWlLk6GJQsqaUBKTNV-1" source="_eyQY1Q9BSyhIE6k3WkP-0" target="_eyQY1Q9BSyhIE6k3WkP-1">
          <mxGeometry relative="1" as="geometry" />
        </mxCell>
        <mxCell id="_eyQY1Q9BSyhIE6k3WkP-0" value="Front" style="shape=process;whiteSpace=wrap;html=1;backgroundOutline=1;" vertex="1" parent="WIyWlLk6GJQsqaUBKTNV-1">
          <mxGeometry x="100" y="140" width="120" height="40" as="geometry" />
        </mxCell>
        <mxCell id="_eyQY1Q9BSyhIE6k3WkP-8" style="edgeStyle=orthogonalEdgeStyle;shape=link;rounded=0;orthogonalLoop=1;jettySize=auto;html=1;exitX=0.5;exitY=1;exitDx=0;exitDy=0;" edge="1" parent="WIyWlLk6GJQsqaUBKTNV-1" source="_eyQY1Q9BSyhIE6k3WkP-1">
          <mxGeometry relative="1" as="geometry">
            <mxPoint x="342" y="710" as="targetPoint" />
          </mxGeometry>
        </mxCell>
        <mxCell id="_eyQY1Q9BSyhIE6k3WkP-30" style="edgeStyle=orthogonalEdgeStyle;rounded=0;orthogonalLoop=1;jettySize=auto;html=1;exitX=1;exitY=0.5;exitDx=0;exitDy=0;entryX=0;entryY=0.5;entryDx=0;entryDy=0;" edge="1" parent="WIyWlLk6GJQsqaUBKTNV-1" source="_eyQY1Q9BSyhIE6k3WkP-1" target="_eyQY1Q9BSyhIE6k3WkP-3">
          <mxGeometry relative="1" as="geometry" />
        </mxCell>
        <mxCell id="_eyQY1Q9BSyhIE6k3WkP-1" value="OpenGate" style="shape=process;whiteSpace=wrap;html=1;backgroundOutline=1;" vertex="1" parent="WIyWlLk6GJQsqaUBKTNV-1">
          <mxGeometry x="282" y="140" width="120" height="40" as="geometry" />
        </mxCell>
        <mxCell id="_eyQY1Q9BSyhIE6k3WkP-2" value="&lt;h1&gt;&lt;span&gt;Login&lt;/span&gt;&lt;/h1&gt;&lt;h1&gt;&lt;span style=&quot;font-size: 12px ; font-weight: 400&quot;&gt;Login via username, password and captcha.&amp;nbsp;&lt;/span&gt;&lt;/h1&gt;" style="text;html=1;strokeColor=none;fillColor=none;spacing=5;spacingTop=-20;whiteSpace=wrap;overflow=hidden;rounded=0;" vertex="1" parent="WIyWlLk6GJQsqaUBKTNV-1">
          <mxGeometry y="20" width="190" height="120" as="geometry" />
        </mxCell>
        <mxCell id="_eyQY1Q9BSyhIE6k3WkP-9" style="edgeStyle=orthogonalEdgeStyle;shape=link;rounded=0;orthogonalLoop=1;jettySize=auto;html=1;exitX=0.5;exitY=1;exitDx=0;exitDy=0;" edge="1" parent="WIyWlLk6GJQsqaUBKTNV-1" source="_eyQY1Q9BSyhIE6k3WkP-3">
          <mxGeometry relative="1" as="geometry">
            <mxPoint x="524" y="710" as="targetPoint" />
          </mxGeometry>
        </mxCell>
        <mxCell id="_eyQY1Q9BSyhIE6k3WkP-3" value="WEB" style="shape=process;whiteSpace=wrap;html=1;backgroundOutline=1;" vertex="1" parent="WIyWlLk6GJQsqaUBKTNV-1">
          <mxGeometry x="464" y="140" width="120" height="40" as="geometry" />
        </mxCell>
        <mxCell id="_eyQY1Q9BSyhIE6k3WkP-10" style="edgeStyle=orthogonalEdgeStyle;shape=link;rounded=0;orthogonalLoop=1;jettySize=auto;html=1;exitX=0.5;exitY=1;exitDx=0;exitDy=0;" edge="1" parent="WIyWlLk6GJQsqaUBKTNV-1" source="_eyQY1Q9BSyhIE6k3WkP-4">
          <mxGeometry relative="1" as="geometry">
            <mxPoint x="706" y="710" as="targetPoint" />
          </mxGeometry>
        </mxCell>
        <mxCell id="_eyQY1Q9BSyhIE6k3WkP-4" value="DB" style="shape=process;whiteSpace=wrap;html=1;backgroundOutline=1;" vertex="1" parent="WIyWlLk6GJQsqaUBKTNV-1">
          <mxGeometry x="646" y="140" width="120" height="40" as="geometry" />
        </mxCell>
        <mxCell id="_eyQY1Q9BSyhIE6k3WkP-6" value="" style="rounded=0;whiteSpace=wrap;html=1;" vertex="1" parent="WIyWlLk6GJQsqaUBKTNV-1">
          <mxGeometry x="20" y="320" width="130" height="60" as="geometry" />
        </mxCell>
        <mxCell id="_eyQY1Q9BSyhIE6k3WkP-17" value="Username&lt;br&gt;" style="text;html=1;strokeColor=none;fillColor=none;align=center;verticalAlign=middle;whiteSpace=wrap;rounded=0;" vertex="1" parent="WIyWlLk6GJQsqaUBKTNV-1">
          <mxGeometry x="55" y="320" width="50" height="20" as="geometry" />
        </mxCell>
        <mxCell id="_eyQY1Q9BSyhIE6k3WkP-18" value="Password" style="text;html=1;strokeColor=none;fillColor=none;align=center;verticalAlign=middle;whiteSpace=wrap;rounded=0;" vertex="1" parent="WIyWlLk6GJQsqaUBKTNV-1">
          <mxGeometry x="55" y="340" width="50" height="20" as="geometry" />
        </mxCell>
        <mxCell id="_eyQY1Q9BSyhIE6k3WkP-19" value="Captcha" style="text;html=1;strokeColor=none;fillColor=none;align=center;verticalAlign=middle;whiteSpace=wrap;rounded=0;" vertex="1" parent="WIyWlLk6GJQsqaUBKTNV-1">
          <mxGeometry x="50" y="360" width="55" height="20" as="geometry" />
        </mxCell>
        <mxCell id="_eyQY1Q9BSyhIE6k3WkP-22" value="" style="endArrow=classic;html=1;" edge="1" parent="WIyWlLk6GJQsqaUBKTNV-1">
          <mxGeometry width="50" height="50" relative="1" as="geometry">
            <mxPoint x="170" y="240" as="sourcePoint" />
            <mxPoint x="330" y="240" as="targetPoint" />
          </mxGeometry>
        </mxCell>
        <mxCell id="_eyQY1Q9BSyhIE6k3WkP-24" value="Https" style="edgeLabel;html=1;align=center;verticalAlign=middle;resizable=0;points=[];" vertex="1" connectable="0" parent="_eyQY1Q9BSyhIE6k3WkP-22">
          <mxGeometry x="-0.3125" y="9" relative="1" as="geometry">
            <mxPoint x="25" y="-81" as="offset" />
          </mxGeometry>
        </mxCell>
        <mxCell id="_eyQY1Q9BSyhIE6k3WkP-23" value="" style="endArrow=classic;html=1;" edge="1" parent="WIyWlLk6GJQsqaUBKTNV-1">
          <mxGeometry width="50" height="50" relative="1" as="geometry">
            <mxPoint x="330" y="320.5" as="sourcePoint" />
            <mxPoint x="170" y="320" as="targetPoint" />
          </mxGeometry>
        </mxCell>
        <mxCell id="_eyQY1Q9BSyhIE6k3WkP-25" value="Captcha" style="edgeLabel;html=1;align=center;verticalAlign=middle;resizable=0;points=[];" vertex="1" connectable="0" parent="_eyQY1Q9BSyhIE6k3WkP-23">
          <mxGeometry x="0.3501" y="-2" relative="1" as="geometry">
            <mxPoint x="17.99" y="-7.66" as="offset" />
          </mxGeometry>
        </mxCell>
        <mxCell id="_eyQY1Q9BSyhIE6k3WkP-32" value="Dubbo" style="edgeLabel;html=1;align=center;verticalAlign=middle;resizable=0;points=[];" vertex="1" connectable="0" parent="WIyWlLk6GJQsqaUBKTNV-1">
          <mxGeometry x="270" y="160" as="geometry">
            <mxPoint x="158" y="-16" as="offset" />
          </mxGeometry>
        </mxCell>
        <mxCell id="_eyQY1Q9BSyhIE6k3WkP-33" value="" style="endArrow=classic;html=1;" edge="1" parent="WIyWlLk6GJQsqaUBKTNV-1">
          <mxGeometry width="50" height="50" relative="1" as="geometry">
            <mxPoint x="350" y="260" as="sourcePoint" />
            <mxPoint x="510" y="260" as="targetPoint" />
          </mxGeometry>
        </mxCell>
        <mxCell id="_eyQY1Q9BSyhIE6k3WkP-34" value="" style="endArrow=classic;html=1;" edge="1" parent="WIyWlLk6GJQsqaUBKTNV-1">
          <mxGeometry width="50" height="50" relative="1" as="geometry">
            <mxPoint x="507.5" y="300" as="sourcePoint" />
            <mxPoint x="346.5" y="300" as="targetPoint" />
          </mxGeometry>
        </mxCell>
        <mxCell id="_eyQY1Q9BSyhIE6k3WkP-36" value="Login" style="edgeLabel;html=1;align=center;verticalAlign=middle;resizable=0;points=[];" vertex="1" connectable="0" parent="WIyWlLk6GJQsqaUBKTNV-1">
          <mxGeometry x="249.99677730937037" y="190.00251141349077" as="geometry">
            <mxPoint x="-11" y="29" as="offset" />
          </mxGeometry>
        </mxCell>
        <mxCell id="_eyQY1Q9BSyhIE6k3WkP-37" value="&lt;div style=&quot;text-align: center&quot;&gt;&lt;font face=&quot;helvetica&quot;&gt;&lt;span style=&quot;font-size: 11px ; background-color: rgb(255 , 255 , 255)&quot;&gt;Login&lt;/span&gt;&lt;/font&gt;&lt;/div&gt;" style="text;whiteSpace=wrap;html=1;" vertex="1" parent="WIyWlLk6GJQsqaUBKTNV-1">
          <mxGeometry x="402" y="230" width="50" height="30" as="geometry" />
        </mxCell>
        <mxCell id="_eyQY1Q9BSyhIE6k3WkP-38" value="&lt;div style=&quot;text-align: center&quot;&gt;&lt;font face=&quot;helvetica&quot;&gt;&lt;span style=&quot;font-size: 11px ; background-color: rgb(255 , 255 , 255)&quot;&gt;Captcha&lt;/span&gt;&lt;/font&gt;&lt;/div&gt;" style="text;whiteSpace=wrap;html=1;" vertex="1" parent="WIyWlLk6GJQsqaUBKTNV-1">
          <mxGeometry x="402" y="270" width="50" height="20" as="geometry" />
        </mxCell>
        <mxCell id="_eyQY1Q9BSyhIE6k3WkP-46" value="" style="endArrow=classic;html=1;" edge="1" parent="WIyWlLk6GJQsqaUBKTNV-1">
          <mxGeometry width="50" height="50" relative="1" as="geometry">
            <mxPoint x="170" y="414" as="sourcePoint" />
            <mxPoint x="330" y="414" as="targetPoint" />
          </mxGeometry>
        </mxCell>
        <mxCell id="_eyQY1Q9BSyhIE6k3WkP-47" value="Username&lt;br&gt;Hash(Username||Password) = m&lt;br&gt;Captcha" style="edgeLabel;html=1;align=center;verticalAlign=middle;resizable=0;points=[];" vertex="1" connectable="0" parent="_eyQY1Q9BSyhIE6k3WkP-46">
          <mxGeometry x="-0.3125" y="9" relative="1" as="geometry">
            <mxPoint x="25" y="-15" as="offset" />
          </mxGeometry>
        </mxCell>
        <mxCell id="_eyQY1Q9BSyhIE6k3WkP-48" value="" style="endArrow=classic;html=1;" edge="1" parent="WIyWlLk6GJQsqaUBKTNV-1">
          <mxGeometry width="50" height="50" relative="1" as="geometry">
            <mxPoint x="347" y="450" as="sourcePoint" />
            <mxPoint x="507" y="450" as="targetPoint" />
          </mxGeometry>
        </mxCell>
        <mxCell id="_eyQY1Q9BSyhIE6k3WkP-49" value="Username&lt;br&gt;m&lt;br&gt;Captcha" style="edgeLabel;html=1;align=center;verticalAlign=middle;resizable=0;points=[];" vertex="1" connectable="0" parent="_eyQY1Q9BSyhIE6k3WkP-48">
          <mxGeometry x="-0.3125" y="9" relative="1" as="geometry">
            <mxPoint x="25" y="-15" as="offset" />
          </mxGeometry>
        </mxCell>
        <mxCell id="_eyQY1Q9BSyhIE6k3WkP-50" value="" style="endArrow=classic;html=1;" edge="1" parent="WIyWlLk6GJQsqaUBKTNV-1">
          <mxGeometry width="50" height="50" relative="1" as="geometry">
            <mxPoint x="700" y="500" as="sourcePoint" />
            <mxPoint x="530" y="500" as="targetPoint" />
          </mxGeometry>
        </mxCell>
        <mxCell id="_eyQY1Q9BSyhIE6k3WkP-53" value="Salt,pwd" style="edgeLabel;html=1;align=center;verticalAlign=middle;resizable=0;points=[];" vertex="1" connectable="0" parent="_eyQY1Q9BSyhIE6k3WkP-50">
          <mxGeometry x="-0.2" y="-4" relative="1" as="geometry">
            <mxPoint x="-12" y="-6" as="offset" />
          </mxGeometry>
        </mxCell>
        <mxCell id="_eyQY1Q9BSyhIE6k3WkP-51" value="" style="endArrow=classic;html=1;" edge="1" parent="WIyWlLk6GJQsqaUBKTNV-1">
          <mxGeometry width="50" height="50" relative="1" as="geometry">
            <mxPoint x="530" y="470" as="sourcePoint" />
            <mxPoint x="700" y="470" as="targetPoint" />
          </mxGeometry>
        </mxCell>
        <mxCell id="_eyQY1Q9BSyhIE6k3WkP-55" value="Result = [ Hash(m || salt) == pwd ]" style="rounded=0;whiteSpace=wrap;html=1;" vertex="1" parent="WIyWlLk6GJQsqaUBKTNV-1">
          <mxGeometry x="380" y="540" width="100" height="40" as="geometry" />
        </mxCell>
        <mxCell id="_eyQY1Q9BSyhIE6k3WkP-56" value="" style="endArrow=classic;html=1;" edge="1" parent="WIyWlLk6GJQsqaUBKTNV-1">
          <mxGeometry width="50" height="50" relative="1" as="geometry">
            <mxPoint x="507" y="585" as="sourcePoint" />
            <mxPoint x="347" y="585" as="targetPoint" />
          </mxGeometry>
        </mxCell>
        <mxCell id="_eyQY1Q9BSyhIE6k3WkP-58" value="" style="endArrow=classic;html=1;" edge="1" parent="WIyWlLk6GJQsqaUBKTNV-1">
          <mxGeometry width="50" height="50" relative="1" as="geometry">
            <mxPoint x="330" y="630" as="sourcePoint" />
            <mxPoint x="170" y="630" as="targetPoint" />
          </mxGeometry>
        </mxCell>
        <mxCell id="_eyQY1Q9BSyhIE6k3WkP-59" value="&lt;span style=&quot;font-size: 12px ; background-color: rgb(248 , 249 , 250)&quot;&gt;Result&lt;/span&gt;" style="edgeLabel;html=1;align=center;verticalAlign=middle;resizable=0;points=[];" vertex="1" connectable="0" parent="_eyQY1Q9BSyhIE6k3WkP-58">
          <mxGeometry x="0.15" y="2" relative="1" as="geometry">
            <mxPoint x="12" y="-12" as="offset" />
          </mxGeometry>
        </mxCell>
      </root>
    </mxGraphModel>
  </diagram>
</mxfile>
